:FULLY-SPECIFIED
:FORCE-ALL-JOINTS-BE-3DOF
:DEGREES
985
root 1.10248 15.1604 32.5031 5.39279 -4.84571 4.06689
lfemur 8.86617 1.92551 5.28541
ltibia -0.101012 0 0
lfoot -30.0883 -11.3394 0.00811419
ltoes -34.1012 0 0
rfemur -33.0631 -16.0974 -6.02103
rtibia 50.7859 -0 0
rfoot -23.3041 5.27766 0.0302719
rtoes -42.4893 0 0
lowerback -1.38199 -0.423173 0.687188
upperback -0.788216 -0.576328 -5.84921
thorax -0.104391 -0.308174 -6.46135
lowerneck -6.60107 1.25964 5.91189
upperneck 0.99836 1.09977 3.45197
head 1.43543 0.652201 0.118578
lclavicle 9.34288e-015 3.18055e-014 0
lhumerus -58.598 -45.3837 115.189
lradius 54.9424 -0 0
lwrist 24.8796 0 0
lhand 37.5864 23.9105 -0.00941539
lfingers 7.12502 -0 0
lthumb 60.3658 37.2989 -0.00828659
rclavicle 9.34288e-015 3.18055e-014 0
rhumerus 4.47123 -26.7575 0.322014
rradius 26.4522 -0 0
rwrist -11.2592 0 0
rhand -32.7706 -45.7083 -0.390439
rfingers 7.12502 -0 0
rthumb -5.96265 -75.8039 -0.454123
986
root 1.10619 15.1604 32.4967 5.35109 -4.78343 4.06457
lfemur 8.83313 1.85457 5.26884
ltibia -0.0806999 0 0
lfoot -30.0962 -11.3828 0.00645581
ltoes -34.0706 0 0
rfemur -32.9683 -16.0259 -6.06038
rtibia 50.7159 -0 0
rfoot -23.2192 5.16649 0.0238216
rtoes -42.557 0 0
lowerback -1.38623 -0.410391 0.672289
upperback -0.774553 -0.558015 -5.84429
thorax -0.0854788 -0.298304 -6.44758
lowerneck -6.63586 1.24773 5.89743
upperneck 1.0429 1.08038 3.45074
head 1.45593 0.644191 0.12035
lclavicle 9.34288e-015 3.18055e-014 0
lhumerus -58.5705 -45.4161 115.19
lradius 54.9604 -0 0
lwrist 24.9413 0 0
lhand 37.5367 23.9899 -0.00785204
lfingers 7.12502 -0 0
lthumb 60.3233 37.4231 -0.0071903
rclavicle 9.34288e-015 3.18055e-014 0
rhumerus 4.3497 -26.2966 0.206992
rradius 26.7556 -0 0
rwrist -11.2337 0 0
rhand -32.4825 -45.4161 -0.30889
rfingers 7.12502 -0 0
rthumb -5.69085 -75.4785 -0.35962
987
root 1.10991 15.1603 32.4904 5.31117 -4.72304 4.0614
lfemur 8.80184 1.78597 5.25435
ltibia -0.0617602 0 0
lfoot -30.1038 -11.4218 0.00490645
ltoes -34.0432 0 0
rfemur -32.8775 -15.959 -6.09676
rtibia 50.6496 -0 0
rfoot -23.1391 5.06212 0.0179535
rtoes -42.6202 0 0
lowerback -1.3902 -0.397928 0.657791
upperback -0.761298 -0.540171 -5.83967
thorax -0.0672118 -0.288694 -6.43435
lowerneck -6.66936 1.23609 5.88473
upperneck 1.0856 1.06139 3.44959
head 1.4756 0.636325 0.12185
lclavicle 9.34288e-015 3.18055e-014 0
lhumerus -58.545 -45.4485 115.191
lradius 54.9784 -0 0
lwrist 24.9999 0 0
lhand 37.4892 24.0656 -0.00632549
lfingers 7.12502 -0 0
lthumb 60.2828 37.5418 -0.00606753
rclavicle 9.34288e-015 3.18055e-014 0
rhumerus 4.23341 -25.8652 0.0992856
rradius 27.0377 -0 0
rwrist -11.2079 0 0
rhand -32.2123 -45.1391 -0.234131
rfingers 7.12502 -0 0
rthumb -5.43565 -75.1704 -0.272852
988
root 1.11363 15.1603 32.4841 5.27332 -4.66512 4.05721
lfemur 8.77279 1.7203 5.24244
ltibia -0.0446046 0 0
lfoot -30.1113 -11.4551 0.00350329
ltoes -34.0201 0 0
rfemur -32.7917 -15.8981 -6.12951
rtibia 50.588 -0 0
rfoot -23.0651 4.966 0.0127633
rtoes -42.678 0 0
lowerback -1.39374 -0.385825 0.643931
upperback -0.748492 -0.522864 -5.83528
thorax -0.0497313 -0.279382 -6.4217
lowerneck -6.70134 1.22486 5.87419
upperneck 1.12605 1.04299 3.44846
head 1.49428 0.628683 0.122993
lclavicle 9.34288e-015 3.18055e-014 0
lhumerus -58.5218 -45.481 115.194
lradius 54.9961 -0 0
lwrist 25.0546 0 0
lhand 37.444 24.137 -0.00487153
lfingers 7.12502 -0 0
lthumb 60.2443 37.6541 -0.00493943
rclavicle 9.34288e-015 3.18055e-014 0
rhumerus 4.12411 -25.4716 0.000754756
rradius 27.2921 -0 0
rwrist -11.1818 0 0
rhand -31.9652 -44.8812 -0.167502
rfingers 7.12502 -0 0
rthumb -5.20225 -74.8845 -0.195403
989
root 1.11734 15.1603 32.4778 5.23786 -4.61021 4.05183
lfemur 8.74648 1.65819 5.23355
ltibia -0.0296449 0 0
lfoot -30.1187 -11.4811 0.00228371
ltoes -34.0025 0 0
rfemur -32.7119 -15.8442 -6.15797
rtibia 50.5319 -0 0
rfoot -22.9989 4.87955 0.0083401
rtoes -42.7296 0 0
lowerback -1.39669 -0.374125 0.630945
upperback -0.736176 -0.506164 -5.83101
thorax -0.0331786 -0.270404 -6.40968
lowerneck -6.73153 1.21416 5.86622
upperneck 1.16383 1.02536 3.4473
head 1.51178 0.621344 0.123694
lclavicle 9.34288e-015 3.18055e-014 0
lhumerus -58.5014 -45.5136 115.198
lradius 55.0135 -0 0
lwrist 25.1052 0 0
lhand 37.4013 24.2031 -0.00352693
lfingers 7.12502 -0 0
lthumb 60.2078 37.7592 -0.00382789
rclavicle 9.34288e-015 3.18055e-014 0
rhumerus 4.02357 -25.1241 -0.0867078
rradius 27.5123 -0 0
rwrist -11.1551 0 0
rhand -31.7469 -44.6464 -0.110282
rfingers 7.12502 -0 0
rthumb -4.99587 -74.6253 -0.128792
990
root 1.12106 15.1603 32.4715 5.20507 -4.55889 4.04508
lfemur 8.72339 1.60022 5.22816
ltibia -0.0172928 0 0
lfoot -30.1262 -11.4983 0.00128536
ltoes -33.9914 0 0
rfemur -32.6391 -15.7986 -6.18147
rtibia 50.4821 -0 0
rfoot -22.942 4.80423 0.00476863
rtoes -42.7743 0 0
lowerback -1.39889 -0.362871 0.619069
upperback -0.724392 -0.490139 -5.82679
thorax -0.0176948 -0.261798 -6.39831
lowerneck -6.7597 1.20415 5.86123
upperneck 1.19852 1.00868 3.44604
head 1.52792 0.614391 0.123868
lclavicle 9.34288e-015 3.18055e-014 0
lhumerus -58.484 -45.5464 115.204
lradius 55.0303 -0 0
lwrist 25.151 0 0
lhand 37.3609 24.2631 -0.00232922
lfingers 7.12502 -0 0
lthumb 60.1734 37.8563 -0.00275533
rclavicle 9.34288e-015 3.18055e-014 0
rhumerus 3.93358 -24.831 -0.161185
rradius 27.6919 -0 0
rwrist -11.1279 0 0
rhand -31.5629 -44.4389 -0.0637031
rfingers 7.12502 -0 0
rthumb -4.82174 -74.3977 -0.0744885
991
root 1.12478 15.1602 32.4652 5.17525 -4.5117 4.03681
lfemur 8.70403 1.54702 5.22673
ltibia -0.0079602 0 0
lfoot -30.1338 -11.5054 0.000546251
ltoes -33.988 0 0
rfemur -32.5742 -15.7623 -6.19935
rtibia 50.4395 -0 0
rfoot -22.8958 4.74146 0.00213167
rtoes -42.8114 0 0
lowerback -1.4002 -0.352105 0.60854
upperback -0.713181 -0.474858 -5.82251
thorax -0.00342138 -0.2536 -6.38763
lowerneck -6.78557 1.19496 5.85963
upperneck 1.22973 0.993161 3.44462
head 1.54253 0.607902 0.12343
lclavicle 9.34288e-015 3.18055e-014 0
lhumerus -58.47 -45.5795 115.213
lradius 55.0464 -0 0
lwrist 25.1917 0 0
lhand 37.3231 24.3163 -0.00131651
lfingers 7.12502 -0 0
lthumb 60.1412 37.9445 -0.00174455
rclavicle 9.34288e-015 3.18055e-014 0
rhumerus 3.85592 -24.6007 -0.220742
rradius 27.8245 -0 0
rwrist -11.1 0 0
rhand -31.4186 -44.2626 -0.0289782
rfingers 7.12502 -0 0
rthumb -4.6851 -74.2063 -0.0339432
992
root 1.12849 15.1602 32.4589 5.14871 -4.46922 4.02684
lfemur 8.68887 1.49918 5.22973
ltibia -0.00205867 0 0
lfoot -30.1417 -11.5007 0.000104808
ltoes -33.9934 0 0
rfemur -32.5182 -15.7367 -6.21097
rtibia 50.4049 -0 0
rfoot -22.8619 4.69269 0.00051288
rtoes -42.84 0 0
lowerback -1.40044 -0.341868 0.599593
upperback -0.702585 -0.46039 -5.8181
thorax 0.00950047 -0.24585 -6.37768
lowerneck -6.8089 1.18672 5.86181
upperneck 1.25702 0.978972 3.443
head 1.55542 0.601958 0.122297
lclavicle 9.34288e-015 3.18055e-014 0
lhumerus -58.4599 -45.6131 115.225
lradius 55.0616 -0 0
lwrist 25.2266 0 0
lhand 37.2878 24.3618 -0.000527241
lfingers 7.12502 -0 0
lthumb 60.1112 38.0229 -0.000818472
rclavicle 9.34288e-015 3.18055e-014 0
rhumerus 3.79236 -24.4413 -0.263438
rradius 27.9035 -0 0
rwrist -11.0712 0 0
rhand -31.3196 -44.1215 -0.00732548
rfingers 7.12502 -0 0
rthumb -4.59117 -74.0558 -0.00861367
993
root 1.13221 15.1602 32.4526 5.12575 -4.432 364.015
lfemur 8.67841 1.45732 5.23763
ltibia 3.65764e-014 0 0
lfoot -30.1499 -11.4829 0
ltoes -34.0086 0 0
rfemur -32.4721 -15.7228 -6.21565
rtibia 50.3791 0 0
rfoot -22.8418 4.65935 0
rtoes -42.8594 0 0
lowerback -1.39947 -0.332204 0.592466
upperback -0.692645 -0.446805 -5.81346
thorax 0.0209294 -0.238582 -6.3685
lowerneck -6.82944 1.17959 5.8682
upperneck 1.28 0.966304 3.4411
head 1.56642 0.59664 0.120382
lclavicle 9.34288e-015 3.18055e-014 0
lhumerus -58.4541 -45.6472 115.24
lradius 55.0756 0 0
lwrist 25.2554 0 0
lhand 37.2552 24.3987 0
lfingers 7.12502 0 0
lthumb 60.0836 38.0909 0
rclavicle 9.34288e-015 3.18055e-014 0
rhumerus 3.74465 -24.3614 -0.287339
rradius 27.9225 0 0
rwrist -11.0416 0 0
rhand -31.2714 -44.0197 0
rfingers 7.12502 0 0
rthumb -4.54518 -793.951 0
994
root 1.13275 15.1602 32.4525 5.10526 -4.39711 4.00176
lfemur 8.67024 1.41844 5.24891
ltibia 1.43125e-014 -0 0
lfoot -30.1576 -11.4583 7.38277e-005
ltoes -34.029 0 0
rfemur -32.4317 -15.7164 -6.21587
rtibia 50.3591 -0 0
rfoot -22.8287 4.63605 6.90388e-005
rtoes -42.8724 0 0
lowerback -1.39791 -0.322944 0.585992
upperback -0.683254 -0.433828 -5.80931
thorax 0.0313702 -0.23165 -6.3602
lowerneck -6.84836 1.17282 5.87734
upperneck 1.30061 0.954117 3.43928
head 1.57637 0.591497 0.118019
lclavicle 9.93923e-017 -7.95139e-015 0
lhumerus -58.4513 -45.6815 115.256
lradius 55.0899 -0 0
lwrist 25.2792 0 0
lhand 37.2258 24.4304 0.000366444
lfingers 7.12502 -0 0
lthumb 60.0587 38.1508 0.000721564
rclavicle 9.93923e-017 -7.95139e-015 0
rhumerus 3.70563 -24.3251 -0.299127
rradius 27.9095 -0 0
rwrist -11.0114 0 0
rhand -31.2503 -43.941 -0.000256465
rfingers 7.12502 -0 0
rthumb -4.52484 -73.8727 -0.000247049
995
root 1.13329 15.1602 32.4524 5.08591 -4.36132 3.98772
lfemur 8.66166 1.3792 5.2617
ltibia 1.43125e-014 -0 0
lfoot -30.1641 -11.4341 0.000141651
ltoes -34.0491 0 0
rfemur -32.3921 -15.7122 -6.21462
rtibia 50.341 -0 0
rfoot -22.8149 4.61632 0.000133988
rtoes -42.8823 0 0
lowerback -1.39652 -0.31389 0.578865
upperback -0.674267 -0.421135 -5.8064
thorax 0.041436 -0.224878 -6.35283
lowerneck -6.86699 1.16562 5.88747
upperneck 1.32106 0.941274 3.43793
head 1.58622 0.586038 0.1156
lclavicle 9.93923e-017 -7.95139e-015 0
lhumerus -58.45 -45.7154 115.271
lradius 55.106 -0 0
lwrist 25.2996 0 0
lhand 37.2001 24.4609 0.000698064
lfingers 7.12502 -0 0
lthumb 60.037 38.206 0.00137007
rclavicle 9.93923e-017 -7.95139e-015 0
rhumerus 3.66701 -24.2912 -0.306908
rradius 27.8969 -0 0
rwrist -10.9809 0 0
rhand -31.2292 -43.8665 -0.000481507
rfingers 7.12502 -0 0
rthumb -4.50445 -73.7987 -0.000463916
996
root 1.13384 15.1602 32.4523 5.06767 -4.32473 3.97294
lfemur 8.65271 1.33968 5.27588
ltibia 1.43125e-014 -0 0
lfoot -30.1694 -11.4104 0.00020304
ltoes -34.069 0 0
rfemur -32.3532 -15.7101 -6.21199
rtibia 50.3248 -0 0
rfoot -22.8003 4.59999 0.000194664
rtoes -42.8893 0 0
lowerback -1.39529 -0.305039 0.571115
upperback -0.665672 -0.408722 -5.80464
thorax 0.0511478 -0.218263 -6.34635
lowerneck -6.88532 1.15801 5.89852
upperneck 1.34133 0.927822 3.43702
head 1.59597 0.580283 0.113133
lclavicle 9.93923e-017 -7.95139e-015 0
lhumerus -58.4501 -45.7491 115.283
lradius 55.1236 -0 0
lwrist 25.3168 0 0
lhand 37.1778 24.4902 0.000993797
lfingers 7.12502 -0 0
lthumb 60.0182 38.2565 0.00194346
rclavicle 9.93923e-017 -7.95139e-015 0
rhumerus 3.62879 -24.2596 -0.310892
rradius 27.8845 -0 0
rwrist -10.9503 0 0
rhand -31.2081 -43.7961 -0.000675924
rfingers 7.12502 -0 0
rthumb -4.48401 -73.7287 -0.000651358
997
root 1.13438 15.1601 32.4523 5.05049 -4.28744 3.95749
lfemur 8.64344 1.29995 5.29134
ltibia 1.43125e-014 -0 0
lfoot -30.1736 -11.3873 0.000257658
ltoes -34.0886 0 0
rfemur -32.3152 -15.7101 -6.2081
rtibia 50.3104 -0 0
rfoot -22.785 4.5869 0.000250807
rtoes -42.8934 0 0
lowerback -1.39425 -0.296387 0.562769
upperback -0.657453 -0.396582 -5.80399
thorax 0.0605266 -0.211802 -6.34069
lowerneck -6.90333 1.15002 5.91044
upperneck 1.36136 0.913807 3.43653
head 1.60558 0.574254 0.110626
lclavicle 9.93923e-017 -7.95139e-015 0
lhumerus -58.4515 -45.7825 115.294
lradius 55.1427 -0 0
lwrist 25.331 0 0
lhand 37.159 24.5183 0.00125303
lfingers 7.12502 -0 0
lthumb 60.0022 38.3027 0.00244082
rclavicle 9.93923e-017 -7.95139e-015 0
rhumerus 3.59096 -24.2301 -0.311293
rradius 27.8724 -0 0
rwrist -10.9195 0 0
rhand -31.1869 -43.7295 -0.000840586
rfingers 7.12502 -0 0
rthumb -4.46356 -73.6625 -0.000810196
